# xmcd
#
# Track frame offsets:
#	150
#	18100
#	34709
#	53446
#	78958
#	96445
#	110268
#	130889
#	147286
#	168489
#	189029
#	206900
#	225698
#
# Disc length: 3266 seconds
# Revision: 0
# Processed by: cddbd v1.5.2PL0 Copyright (c) Steve Scherf et al.
# Submitted via: dBpowerAMP V12.0
#
DISCID=a00cc00d
DTITLE=Nat Myria Benedetti - Chill Time
DYEAR=2006
DGENRE=Thai Pop
TTITLE0=Ruk mai chuay arai
TTITLE1=Fah kub tawan
TTITLE2=Kor tode tee kuan jai ter
TTITLE3=Duay mue kong ter
TTITLE4=Prad-sa-jark narm tarn
TTITLE5=Orn wai
TTITLE6=Poo chai khon nun chun hai ter
TTITLE7=Kae nee na
TTITLE8=Yah tum yah tum
TTITLE9=Kong kwan wun puad jai
TTITLE10=Kae dok mai chor diew
TTITLE11=Yung ror pieng ter
TTITLE12=Pid ru plao
EXTD=
EXTT0=
EXTT1=
EXTT2=
EXTT3=
EXTT4=
EXTT5=
EXTT6=
EXTT7=
EXTT8=
EXTT9=
EXTT10=
EXTT11=
EXTT12=
PLAYORDER=
